HIERARCHY
ROOT Hips
{
  OFFSET 40.9192 92.6879 18.85
  CHANNELS 6 Xposition Yposition Zposition Zrotation Xrotation Yrotation
  JOINT LeftUpLeg
  {
    OFFSET 8.64259 1.95398 -2.38835
    CHANNELS 3 Zrotation Xrotation Yrotation
    JOINT LeftLeg
    {
      OFFSET 43.7702 0 0
      CHANNELS 3 Zrotation Xrotation Yrotation
      JOINT LeftFoot
      {
        OFFSET 40.6238 0 0
        CHANNELS 3 Zrotation Xrotation Yrotation
        JOINT LeftToeBase
        {
          OFFSET 12.7242 0 0
          CHANNELS 3 Zrotation Xrotation Yrotation
          End Site
          {
            OFFSET 0 0 0
          }
        }
      }
    }
  }
  JOINT RightUpLeg
  {
    OFFSET -8.2249 1.95398 -2.59336
    CHANNELS 3 Zrotation Xrotation Yrotation
    JOINT RightLeg
    {
      OFFSET 43.5653 0 0
      CHANNELS 3 Zrotation Xrotation Yrotation
      JOINT RightFoot
      {
        OFFSET 40.6238 0 0
        CHANNELS 3 Zrotation Xrotation Yrotation
        JOINT RightToeBase
        {
          OFFSET 12.7242 0 0
          CHANNELS 3 Zrotation Xrotation Yrotation
          End Site
          {
            OFFSET 0 0 0
          }
        }
      }
    }
  }
  JOINT Spine
  {
    OFFSET 0.165834 0.87714 6.61349
    CHANNELS 3 Zrotation Xrotation Yrotation
    JOINT Spine1
    {
      OFFSET 7.38963 1.71661e-005 0
      CHANNELS 3 Zrotation Xrotation Yrotation
      JOINT Spine2
      {
        OFFSET 11.9445 1.14441e-005 0
        CHANNELS 3 Zrotation Xrotation Yrotation
        JOINT Spine3
        {
          OFFSET 14.7254 4.19617e-005 0
          CHANNELS 3 Zrotation Xrotation Yrotation
          JOINT Spine4
          {
            OFFSET 10.9679 0 0
            CHANNELS 3 Zrotation Xrotation Yrotation
            JOINT RightShoulder
            {
              OFFSET 2.46616 -1.6653 3.69651
              CHANNELS 3 Zrotation Xrotation Yrotation
              JOINT RightArm
              {
                OFFSET 13.0012 0 0
                CHANNELS 3 Zrotation Xrotation Yrotation
                JOINT RightForeArm
                {
                  OFFSET 28.7848 1.52588e-005 0
                  CHANNELS 3 Zrotation Xrotation Yrotation
                  JOINT RightHand
                  {
                    OFFSET 26.5688 1.52588e-005 0
                    CHANNELS 3 Zrotation Xrotation Yrotation
                    End Site
                    {
                      OFFSET 0 0 0
                    }
                  }
                }
              }
            }
            JOINT LeftShoulder
            {
              OFFSET 2.38034 -1.29275 -3.7523
              CHANNELS 3 Zrotation Xrotation Yrotation
              JOINT LeftArm
              {
                OFFSET 16.3182 6.10351e-005 0
                CHANNELS 3 Zrotation Xrotation Yrotation
                JOINT LeftForeArm
                {
                  OFFSET 27.0901 0 0
                  CHANNELS 3 Zrotation Xrotation Yrotation
                  JOINT LeftHand
                  {
                    OFFSET 24.5451 1.52588e-005 0
                    CHANNELS 3 Zrotation Xrotation Yrotation
                    End Site
                    {
                      OFFSET 0 0 0
                    }
                  }
                }
              }
            }
            JOINT Neck
            {
              OFFSET 5.0226 -0.0266342 0
              CHANNELS 3 Zrotation Xrotation Yrotation
              JOINT Head
              {
                OFFSET 6.69363 2.86102e-005 0
                CHANNELS 3 Zrotation Xrotation Yrotation
                End Site
                {
                  OFFSET 0 0 0
                }
              }
            }
          }
        }
      }
    }
  }
}
MOTION
Frames:	17
Frame Time:	0.0416667
37.0765 95.1648 -18.2526 118.857 -79.0535 117.669 -173.821 7.25481 84.0083 -26.0811 12.2614 -2.91525 71.1958 10.1361 2.77503 23.8543 -3.94872 0.196214 177.933 16.7702 88.0553 -17.5033 -20.2534 -5.40824 55.6902 0.508411 0.555445 43.4225 0.333687 -6.3124 -0.188182 7.95029 -89.9728 10.9734 -0.36202 0.0885576 -0.69748 -0.357763 0.1044 -23.2331 -0.3719 -0.0243448 -3.2204 -0.371889 -0.0243354 92.5439 -47.8179 -97.3321 30.1907 -3.97435 12.8831 -9.06939 -20.5337 -44.0979 -7.5879 -0.884226 4.51139 -97.867 -48.835 66.7045 -20.2974 12.9379 4.23563 5.56377 9.78724 -39.1386 11.9336 0.898567 3.4948 0.445471 23.1935 -3.97399 -4.2021 23.545 19.4687 
38.1124 94.4267 -12.6187 110.792 -75.4906 108.515 -174.897 4.30385 82.937 -27.9129 13.2055 -1.95238 75.0531 14.08 3.18245 25.0896 -2.65262 -1.85188 179.113 19.2249 86.5104 -19.6409 -30.4651 -8.40126 50.6897 2.77524 2.32591 37.2501 0.336722 -4.87329 -0.310438 7.88933 -89.9267 11.0953 -0.583838 0.203215 -0.575529 -0.574327 0.228707 -23.1117 -0.617921 0.0183496 -3.09902 -0.617926 0.018345 92.9639 -48.5539 -96.5283 30.484 -3.72033 15.035 -8.49077 -19.7682 -43.5921 -7.66182 -0.865348 4.33896 -97.8623 -48.1747 66.4833 -18.2056 11.9626 3.70159 6.60087 8.53821 -42.9543 11.6022 0.818195 3.04607 0.592932 25.0601 -5.00418 -4.94337 25.3959 21.0623 
39.1995 93.2058 -7.47971 110.535 -71.0167 108.076 -174.914 2.49018 83.3331 -34.1624 13.6469 -1.25866 76.7894 16.7785 5.1633 30.6176 1.52309 -1.04341 -178.671 18.7779 85.9422 -30.5289 -25.5072 -10.1422 58.5766 -0.744474 -0.302696 37.9865 0.505826 1.02391 -0.484344 8.04145 -90.0746 10.7908 -0.998763 -0.0566452 -0.879797 -1.0003 -0.0126339 -23.4177 -0.935568 -0.354221 -3.40508 -0.935566 -0.354231 92.1365 -47.2414 -98.0932 31.9523 -3.26064 16.3999 -8.99423 -19.6366 -43.4177 -6.8119 -0.852711 4.93321 -97.9029 -48.4851 66.5308 -17.4201 9.9087 3.14615 6.41465 6.71809 -44.7269 13.4877 0.987104 3.32493 -0.427031 26.5238 -3.27411 -3.16625 26.9345 21.399 
40.7506 93.0906 -3.44431 105.211 -65.0225 103.957 -172.997 5.66172 85.2726 -42.7633 11.5515 -1.5543 71.8696 12.908 5.35374 38.4612 7.78903 5.0859 -179.536 17.0115 86.2617 -33.9568 -19.4022 -8.89793 62.8326 -2.43384 -1.36583 40.4278 0.602256 0.539713 -0.673813 8.14236 -90.4692 10.5836 -1.55768 -0.792282 -1.08663 -1.59103 -0.722954 -23.6251 -1.24756 -1.22382 -3.61243 -1.24756 -1.22382 92.5265 -46.8915 -97.5403 30.7246 -3.27872 13.9191 -7.16922 -19.4132 -40.6897 -8.04437 -1.00274 5.91198 -99.6578 -49.6845 64.3857 -17.1797 9.19313 1.65526 2.47858 3.02135 -42.8437 17.8319 1.07246 2.15072 -0.0895685 26.7767 -2.88325 -3.34853 27.1326 23.5482 
42.2069 93.9049 -0.467238 100.431 -60.9333 98.9362 -168.642 9.47284 86.6394 -46.0778 4.21375 -4.12968 68.1358 9.27547 3.28352 40.7918 10.2983 11.9902 178.304 14.8768 85.103 -32.4751 -16.5732 -7.69656 64.9645 -3.19479 -1.76529 39.4656 0.563756 1.01508 -0.519637 8.20562 -90.6699 10.454 -1.34227 -1.21216 -1.21682 -1.39432 -1.15192 -23.7503 -0.915968 -1.55948 -3.73769 -0.915961 -1.55948 92.553 -45.7273 -97.7321 29.8407 -2.81148 12.0117 -6.85806 -18.5317 -40.5108 -8.3578 -0.971573 5.33014 -99.8579 -49.5229 64.0357 -19.4245 10.5688 -1.28058 3.08292 5.00342 -40.2488 16.3308 0.991239 2.21596 1.83972 25.9142 -3.83316 -3.68903 26.3503 25.8983 
43.7954 94.9806 2.43366 95.9327 -56.5881 94.2718 -165.259 13.1272 88.1911 -44.3168 3.30821 -6.63649 66.5737 7.33004 1.50389 39.2502 8.88046 12.9122 176.085 12.2824 83.9543 -28.9959 -14.341 -6.49395 65.2394 -3.18421 -1.74604 39.5169 0.520321 -0.642621 -0.276979 8.16526 -90.6969 10.537 -0.871816 -1.30717 -1.13428 -0.928497 -1.26754 -23.665 -0.438702 -1.50872 -3.65235 -0.438694 -1.50871 92.5738 -45.9856 -97.6461 28.8265 -2.3473 10.9442 -8.85022 -19.6794 -42.7148 -9.22694 -1.07931 5.67346 -99.8729 -49.3681 63.9563 -21.0306 13.0327 -0.320035 5.44215 8.27323 -41.5934 13.4555 0.946231 3.0799 2.60641 23.77 -5.13215 -1.59357 24.839 26.0644 
45.5651 95.5436 4.97582 92.0518 -49.8353 90.7324 -164.506 17.1609 88.907 -39.0122 5.56963 -7.44442 64.92 6.15834 2.25093 41.5302 10.9369 11.1279 173.639 10.7087 83.161 -27.3949 -9.78586 -4.65688 65.4178 -2.81857 -1.51696 40.9348 0.48367 -2.94114 -0.224054 8.03363 -90.6721 10.8006 -0.756286 -1.26602 -0.870744 -0.811284 -1.23152 -23.4015 -0.340888 -1.43476 -3.38883 -0.340883 -1.43476 92.9563 -45.8359 -97.0561 28.9338 -3.1071 10.1789 -9.26056 -19.2355 -45.0294 -9.58028 -1.03802 4.92996 -99.8723 -49.2387 63.9094 -22.973 15.0341 1.38287 4.25078 9.11704 -39.5404 15.9547 1.32166 4.33914 3.37316 21.1168 -6.25431 0.197238 22.7265 24.6003 
47.7165 95.9035 7.30445 90.7792 -44.175 89.6693 -164.718 19.6984 90.387 -31.8309 3.13877 -7.47968 64.2093 4.71471 -0.217687 40.5566 10.0491 11.5443 172.052 7.55297 82.6865 -25.2878 -5.67215 -3.44833 65.7093 -2.83728 -1.51903 42.0255 0.4551 -4.01985 -0.0386139 8.03263 -90.5827 10.8055 -0.345849 -1.1267 -0.86588 -0.395094 -1.1104 -23.3971 0.00871868 -1.17855 -3.38447 0.00874342 -1.17855 92.447 -45.9741 -97.8535 28.6431 -3.86117 10.3427 -9.93784 -18.6704 -48.0282 -10.1752 -0.843751 2.50826 -99.6176 -49.5676 64.4015 -24.8255 14.5657 3.73373 2.39166 7.99035 -36.2514 16.1845 1.52112 5.47132 3.59037 18.0438 -6.01289 3.80552 20.2864 22.7794 
50.3276 95.9057 9.53905 88.7968 -38.3903 88.7161 -166.438 22.1562 91.7343 -21.382 4.29055 -6.55714 60.3419 1.53667 0.400596 40.0238 9.46158 10.37 171.094 4.71956 82.9701 -23.2114 -1.45293 -2.37389 65.163 -2.48534 -1.31803 43.3302 0.418542 -4.92018 0.104941 7.94969 -90.4218 10.9739 0.0136423 -0.84075 -0.697313 -0.023401 -0.840535 -23.2305 0.265668 -0.797792 -3.21781 0.265665 -0.797791 92.5529 -46.7728 -97.5211 28.2795 -5.17107 8.66051 -8.67937 -17.7403 -49.5368 -11.3602 -0.908296 2.6752 -98.6972 -49.2344 65.6248 -26.6206 12.7692 6.97836 3.43714 9.14374 -34.5575 14.3637 1.36354 5.49335 4.74577 15.16 -7.32257 5.17999 17.8251 21.0312 
53.687 95.4043 11.3546 87.3058 -33.2133 88.6665 -168.593 24.0693 93.0014 -12.2816 3.96034 -5.56238 59.5664 0.897228 1.28486 39.5099 8.97873 10.3284 170.441 1.33678 83.4815 -21.0947 2.68847 -1.54321 66.2474 -2.92423 -1.55327 43.3126 0.411603 -5.05348 0.24015 7.85834 -90.318 11.1573 0.330441 -0.664957 -0.513746 0.300856 -0.678859 -23.0483 0.514989 -0.53491 -3.03565 0.514994 -0.534911 91.9103 -46.9072 -98.5223 27.6165 -5.94349 7.63074 -8.27238 -17.2916 -51.0169 -11.4982 -0.926978 2.82381 -98.3857 -49.6684 66.2316 -27.1657 12.8322 10.0813 2.6126 9.42287 -31.9731 13.1764 1.31456 5.89215 4.64336 12.3045 -7.10757 7.71009 15.1034 17.7882 
57.5107 94.3825 12.448 86.1918 -30.4101 89.334 -169.279 27.3288 94.2703 -10.4206 1.04188 -4.82316 60.3324 0.08105 1.34224 39.4032 8.80266 8.9479 169.8 -1.12708 83.8368 -20.4153 3.04018 -0.99286 66.0755 -3.19144 -1.7052 46.8009 0.226794 -7.18912 0.47693 7.82485 -90.2217 11.2261 0.846167 -0.524874 -0.444743 0.822247 -0.56162 -22.9818 0.964754 -0.246298 -2.96914 0.964811 -0.246282 92.1951 -46.3779 -98.1763 26.5826 -7.41603 4.63446 -9.23604 -18.4086 -51.8518 -11.9383 -0.967344 2.90116 -97.6784 -50.5753 67.5702 -27.5604 12.771 12.9162 1.56993 9.74685 -28.8087 13.4763 1.32914 5.80644 5.48935 10.1193 -6.84592 8.94052 12.8412 15.1086 
62.0586 93.5298 13.1967 85.1636 -28.3793 89.0672 -167.9 31.2158 93.92 -16.4774 4.11065 -6.12846 55.3219 -3.63832 0.544793 38.5302 7.95873 7.82782 169.631 -1.53853 83.0533 -23.2323 2.61889 -1.53167 64.5989 -2.73531 -1.46801 49.8845 -0.0413866 -9.11118 0.672681 7.84206 -89.996 11.1912 1.34069 -0.123411 -0.479106 1.33396 -0.182321 -23.0197 1.31581 0.285308 -3.00702 1.31578 0.285283 91.8683 -45.6316 -98.8636 25.3078 -8.01322 2.20122 -11.3819 -20.9933 -53.7031 -11.4347 -1.06008 3.84704 -97.4167 -50.9329 68.0667 -28.5871 11.105 15.5887 1.86912 9.85649 -26.6776 11.5734 1.11936 5.49815 7.49048 8.31894 -6.45501 8.60579 10.7801 12.6352 
67.95 93.377 13.4368 85.2925 -24.856 87.7797 -165.922 31.1701 90.2757 -23.3161 6.59456 -7.06551 57.628 -0.848593 3.02798 39.0877 8.19536 2.34591 169.012 -1.51704 80.4216 -28.5536 1.83381 -2.76492 60.2424 -0.976144 -0.397203 50.5224 -0.437769 -12.1033 0.804897 7.93447 -89.6723 11.0018 1.75414 0.482971 -0.668061 1.77368 0.405272 -23.21 1.52788 0.987923 -3.1974 1.52788 0.987926 91.9691 -44.9749 -98.8429 25.5696 -7.38246 2.81589 -12.3288 -21.48 -53.8834 -11.474 -1.13282 4.46203 -98.0877 -50.8101 67.0557 -28.9665 10.7975 15.4804 0.848139 9.74858 -22.6642 9.02071 0.837486 4.96216 9.21154 5.68762 -6.54642 7.23652 8.03562 11.4157 
74.944 93.8292 13.1014 85.2071 -22.5169 87.891 -164.878 28.5212 89.0521 -26.3845 8.15485 -8.70434 61.9607 2.60301 4.38265 36.0809 5.74302 1.65488 171.271 1.16645 79.9049 -36.3189 4.59014 -4.48709 49.7149 1.5281 1.53959 44.2147 0.0121077 -12.1272 0.914166 7.7763 -89.5894 11.3169 2.01053 0.61836 -0.35261 2.0358 0.529233 -22.8965 1.73174 1.19416 -2.88388 1.73173 1.19415 92.4349 -44.2711 -98.229 26.7772 -7.39109 5.14922 -12.2466 -21.8908 -52.7328 -10.6034 -1.11393 4.76271 -97.2683 -50.6066 68.1766 -30.4431 10.7766 15.756 1.30768 11.5516 -21.9079 7.07507 0.79358 6.27207 8.76013 4.1587 -6.19543 5.16378 6.12778 10.0251 
81.3639 94.0803 12.8777 85.8627 -18.365 88.3071 -165.006 25.0216 88.1382 -28.7635 9.35344 -9.33526 66.5145 6.01608 3.0369 34.5618 4.52881 1.212 175.296 6.62374 82.0501 -50.4024 1.93821 -5.57512 47.8879 1.5832 1.61529 35.3434 0.400891 -11.9648 0.580583 7.75542 -89.5607 11.3585 1.36015 0.738554 -0.311945 1.39134 0.67796 -22.8492 1.07533 1.1132 -2.83657 1.07532 1.1132 92.9295 -44.0296 -97.4609 28.0265 -7.58293 6.19289 -11.8544 -23.0219 -50.851 -8.57177 -0.993287 4.7493 -97.4717 -49.4462 67.4939 -32.1381 10.6556 15.9509 1.85139 10.5776 -23.9425 6.80586 0.631737 4.61091 9.67655 3.66151 -5.66622 2.94188 5.30467 8.83697 
87.2548 94.5094 12.6193 87.4074 -14.5839 88.3385 -167.175 19.6866 86.8455 -28.4629 10.7045 -8.52355 68.5519 7.66465 3.42305 33.9649 3.9909 3.3158 177.477 13.6613 84.19 -61.3296 -1.93101 -5.08559 50.5371 0.687803 0.763184 38.3406 0.298764 -9.31999 0.270044 7.91019 -89.507 11.0496 0.766221 0.907334 -0.621375 0.805405 0.872734 -23.1548 0.458079 1.09564 -3.14212 0.458116 1.09565 93.0233 -44.7171 -97.167 28.3835 -7.51555 7.77343 -11.5311 -23.6826 -49.5962 -7.84462 -0.979546 5.0931 -98.4878 -48.8261 65.7875 -30.2646 13.3423 12.0672 1.06476 11.2434 -25.1797 7.6493 0.629593 3.82907 8.91387 3.01745 -4.82982 3.18615 4.44641 8.08278 
93.2749 95.3473 12.222 87.7108 -11.9443 89.0811 -169.02 14.0972 86.386 -25.4629 9.77809 -7.24722 70.4031 8.85233 2.49536 34.3922 4.29341 5.7104 179.241 20.6195 87.5982 -62.8644 -3.41141 -4.65342 56.1227 -0.923255 -0.49975 40.6986 0.197625 -10.0745 0.100402 7.88529 -89.6059 11.1013 0.382756 0.747099 -0.569789 0.415285 0.729517 -23.1032 0.140534 0.827584 -3.09056 0.140539 0.827583 93.4651 -46.4046 -96.1247 27.4986 -7.9691 9.77346 -11.258 -25.2605 -48.1793 -7.38181 -0.939427 4.78001 -98.726 -48.845 65.4439 -26.8828 13.9714 7.8051 3.44144 13.3512 -29.8898 9.47759 0.841298 4.58304 6.80216 2.43782 -4.0424 3.34544 3.62217 7.45123 
